<svg xmlns="http://www.w3.org/2000/svg" xmlns:xlink="http://www.w3.org/1999/xlink" width="500" zoomAndPan="magnify" viewBox="0 0 375 374.999991" height="500" preserveAspectRatio="xMidYMid meet" version="1.0"><defs><g/><clipPath id="3b48476102"><path d="M 30.179688 8.472656 L 345 8.472656 L 345 366.222656 L 30.179688 366.222656 Z M 30.179688 8.472656 " clip-rule="nonzero"/></clipPath></defs><g clip-path="url(#3b48476102)"><path fill="#c89a5b" d="M 339.460938 366.527344 L 35.53125 366.527344 C 32.570312 366.527344 30.175781 364.128906 30.175781 361.167969 L 30.175781 131.882812 C 30.175781 130.222656 30.941406 128.664062 32.25 127.648438 L 184.214844 9.953125 C 186.144531 8.449219 188.839844 8.449219 190.773438 9.953125 L 342.738281 127.648438 C 344.046875 128.664062 344.8125 130.222656 344.8125 131.882812 L 344.8125 361.167969 C 344.820312 364.128906 342.414062 366.527344 339.460938 366.527344 Z M 40.890625 355.808594 L 334.09375 355.808594 L 334.09375 134.507812 L 187.496094 20.96875 L 40.890625 134.507812 Z M 40.890625 355.808594 " fill-opacity="1" fill-rule="nonzero"/></g><g fill="#c89a5b" fill-opacity="1"><g transform="translate(58.999846, 284.353483)"><g><path d="M 55.4375 -134.578125 C 44.789062 -134.578125 36.320312 -128.945312 30.03125 -117.6875 C 23.75 -106.4375 20.609375 -90.847656 20.609375 -70.921875 C 20.609375 -57.953125 22.054688 -46.660156 24.953125 -37.046875 C 27.859375 -27.441406 32.019531 -20.054688 37.4375 -14.890625 C 42.851562 -9.734375 49.144531 -7.15625 56.3125 -7.15625 C 63.664062 -7.15625 69.984375 -8.476562 75.265625 -11.125 L 75.265625 -2.421875 C 70.234375 0.484375 63.625 1.9375 55.4375 1.9375 C 46.46875 1.9375 38.613281 -0.960938 31.875 -6.765625 C 25.132812 -12.578125 19.925781 -20.976562 16.25 -31.96875 C 12.570312 -42.96875 10.734375 -56.015625 10.734375 -71.109375 C 10.734375 -93.679688 14.75 -111.414062 22.78125 -124.3125 C 30.8125 -137.21875 41.757812 -143.671875 55.625 -143.671875 C 64.269531 -143.671875 71.816406 -141.671875 78.265625 -137.671875 L 73.921875 -129.359375 C 68.492188 -132.835938 62.332031 -134.578125 55.4375 -134.578125 Z M 55.4375 -134.578125 "/></g></g></g><g fill="#c89a5b" fill-opacity="1"><g transform="translate(142.246846, 284.353483)"><g/></g></g><g fill="#c89a5b" fill-opacity="1"><g transform="translate(179.494959, 284.353483)"><g/></g></g><g fill="#c89a5b" fill-opacity="1"><g transform="translate(216.7809, 284.353483)"><g><path d="M 83.78125 0 L 74.296875 0 L 74.296875 -69.5625 L 24.96875 -69.5625 L 24.96875 0 L 15.484375 0 L 15.484375 -141.453125 L 24.96875 -141.453125 L 24.96875 -78.65625 L 74.296875 -78.65625 L 74.296875 -141.453125 L 83.78125 -141.453125 Z M 83.78125 0 "/></g></g></g><path stroke-linecap="round" transform="matrix(0, 0.75, -0.75, 0, 187.450787, 106.789366)" fill="none" stroke-linejoin="miter" d="M 2.999596 3.002092 L 290.135031 3.002092 " stroke="#c89a5b" stroke-width="6" stroke-opacity="1" stroke-miterlimit="4"/></svg>